<?xml version="1.0" encoding="UTF-8" standalone="no"?>
<!-- Created with Inkscape (http://www.inkscape.org/) -->

<svg
   width="512"
   height="512"
   viewBox="0 0 512 512"
   version="1.1"
   id="svg1"
   xml:space="preserve"
   xmlns:xlink="http://www.w3.org/1999/xlink"
   xmlns="http://www.w3.org/2000/svg"
   xmlns:svg="http://www.w3.org/2000/svg"><defs
     id="defs1"><linearGradient
       id="swatch37"><stop
         style="stop-color:#008000;stop-opacity:1;"
         offset="0"
         id="stop37" /></linearGradient><rect
       x="93.205414"
       y="160.59041"
       width="264.50186"
       height="200.26569"
       id="rect3" /><rect
       x="93.205414"
       y="160.59041"
       width="264.50186"
       height="200.26569"
       id="rect4" /><rect
       x="93.205414"
       y="160.59041"
       width="264.50186"
       height="200.26569"
       id="rect5" /></defs><g
     id="g28"><g
       id="layer1"><g
         id="g21"
         style="display:inline;fill:#5840BA;fill-opacity:1"><text
           xml:space="preserve"
           id="use45"
           style="font-style:normal;font-variant:normal;font-weight:normal;font-stretch:normal;font-size:96px;line-height:0;font-family:'Maiandra GD';-inkscape-font-specification:'Maiandra GD';text-align:center;white-space:pre;shape-inside:url(#rect3);display:inline;fill:#5840BA;fill-opacity:1;stroke:none;stroke-opacity:1"
           transform="matrix(5.9598698,0,0,4.8038512,-1256.1464,-508.89064)"><tspan
             x="208.55762"
             y="185.52734"
             id="tspan3">{</tspan></text><text
           xml:space="preserve"
           id="use46"
           style="font-style:normal;font-variant:normal;font-weight:normal;font-stretch:normal;font-size:96px;line-height:0;font-family:'Maiandra GD';-inkscape-font-specification:'Maiandra GD';text-align:center;white-space:pre;shape-inside:url(#rect4);display:inline;fill:#5840BA;fill-opacity:1;stroke:none;stroke-opacity:1"
           transform="matrix(5.9598698,0,0,4.8038512,-919.80117,-504.93999)"><tspan
             x="208.55762"
             y="185.52734"
             id="tspan4">}</tspan></text><path
           id="path28"
           style="font-size:96px;line-height:0;font-family:'Lucida Handwriting';-inkscape-font-specification:'Lucida Handwriting';text-align:center;white-space:pre;shape-inside:url(#rect5);display:inline;fill:#5840BA;fill-opacity:1"
           d="m 254.1377,89.244766 c -10.00088,53.427944 -22.87624,105.117984 -38.56446,155.107424 10.45679,2.57094 20.40026,5.69912 29.20117,9.26562 5.72519,-19.98581 11.14791,-40.12105 16.16407,-60.45898 3.30275,15.77439 6.47442,30.71973 9.54296,45.01172 0.42042,-0.72662 0.88142,-1.40319 1.42774,-1.97657 1.80247,-1.89158 4.33912,-2.71859 6.82031,-2.52539 4.9624,0.38645 9.97016,3.95965 14.87695,9.11914 4.62707,4.86534 9.07975,11.30445 12.56055,18.42774 -0.49894,-2.19786 -1.00878,-4.27154 -1.50586,-6.49024 -6.2181,-27.14559 -10.10564,-44.08428 -11.66015,-50.8164 l -8.16016,-35.18164 C 275.5137,127.46578 265.27846,100.97169 254.1377,89.244766 Z m 58.80859,201.101564 0.14453,8.60351 2.00195,0.004 c -0.71267,-2.90015 -1.43745,-5.66663 -2.14648,-8.60742 z m -90.13086,14.98242 c -4.60672,1.0358 -9.91257,2.52174 -13.79102,4.16406 -3.53619,1.49744 -6.24271,2.63442 -8.57617,3.30274 -2.33349,0.66831 -4.4644,0.90264 -6.4375,0.10937 -0.71645,-0.28804 -1.33212,-0.72271 -1.91015,-1.2168 -2.43357,6.2345 -4.85096,12.20244 -7.25586,17.91211 10.71476,-8.75944 23.43586,-16.94207 37.9707,-24.27148 z m 94.24609,18.42578 c -1.20516,0.002 -2.04627,0.0209 -3.33984,0.0195 -8.2514,-0.009 -16.19764,0.29869 -23.90039,0.85742 10.9468,37.21242 19.40404,61.96693 25.27344,73.76953 9.63648,19.60315 25.21248,30.59259 46.72656,32.96876 -15.72403,-28.7788 -30.64181,-64.67333 -44.75977,-107.61524 z M 215.8252,344.68031 c -19.24893,9.45743 -35.91937,22.09586 -49.92579,37.87305 -3.29161,3.7078 -5.9645,6.55492 -8.15429,8.60156 -2.18982,2.04664 -3.7109,3.37139 -5.69336,3.875 -0.52784,0.13406 -1.17825,0.14015 -1.81055,0.002 -0.0206,0.0283 -0.0419,0.0635 -0.0625,0.0918 6.99537,2.17166 13.92719,3.25781 20.79297,3.25781 10.62261,0 19.49623,-4.88771 26.62109,-14.66015 5.43369,-7.61836 11.51793,-20.68676 18.23243,-39.04102 z" /><path
           style="color:#000000;display:inline;fill:#5840BA;fill-opacity:1;-inkscape-stroke:none"
           d="m 150.37861,385.04564 c 5.19889,-28.4397 32.17937,-56.6094 74.43673,-77.7175 l 11.97337,-5.98087 -9.17601,1.10559 c -5.04677,0.60806 -13.73842,3.03757 -19.31475,5.39891 -14.11588,5.9775 -14.53763,5.80792 -20.37244,-8.19016 -8.52931,-20.46251 -29.24556,-39.84668 -54.70639,-51.18867 -11.39478,-5.076 -9.6437,-7.04102 7.72432,-8.668 30.84594,-2.88959 77.49046,4.95475 107.19645,18.02753 l 13.74583,6.04915 3.83116,-5.11473 c 2.10714,-2.81311 4.41834,-8.94414 5.13603,-13.62455 4.00141,-26.09636 39.41302,11.13893 39.92823,41.98458 l 0.24241,14.5127 9.21679,0.0168 c 15.24726,0.0263 32.68997,9.6224 32.68997,17.98434 0,1.66266 -10.57396,2.35782 -35.32141,2.32215 -66.46321,-0.0957 -118.12636,19.97373 -153.24335,59.53043 -13.07556,14.7286 -16.17369,15.5156 -13.98694,3.5532 z"
           id="path2" /></g></g><g
       id="layer2"><rect
         style="fill:#000000;stroke-width:4.514;stroke-dasharray:none"
         id="rect21"
         width="555.74939"
         height="512"
         x="569.99939"
         y="0" /><use
         x="0"
         y="0"
         xlink:href="#g21"
         id="use21"
         transform="translate(592.71788,-6.2825934)" /></g><g
       id="g22"
       transform="translate(613.72033)"><rect
         style="fill:#121212;fill-opacity:1;stroke-width:4.514;stroke-dasharray:none"
         id="rect22"
         width="555.74939"
         height="512"
         x="569.99939"
         y="0" /><use
         x="0"
         y="0"
         xlink:href="#g21"
         id="use22"
         transform="translate(592.71788,-6.2825934)" /></g><g
       id="g23"
       transform="translate(-591.87408,573.56188)"><rect
         style="fill:#0b0b30;fill-opacity:0.922043;stroke-width:4.514;stroke-dasharray:none"
         id="rect23"
         width="555.74939"
         height="512"
         x="569.99939"
         y="0" /><use
         x="0"
         y="0"
         xlink:href="#g21"
         id="use23"
         transform="translate(592.71788,-6.2825934)" /></g><g
       id="g24"
       transform="translate(0,573.56188)"><rect
         style="fill:#bababa;fill-opacity:1;stroke-width:4.514;stroke-dasharray:none"
         id="rect24"
         width="555.74939"
         height="512"
         x="569.99939"
         y="0" /><use
         x="0"
         y="0"
         xlink:href="#g21"
         id="use24"
         transform="translate(592.71788,-6.2825934)" /></g><g
       id="g25"
       transform="translate(613.72033,573.56188)"><rect
         style="fill:#eaeaea;fill-opacity:1;stroke-width:4.514;stroke-dasharray:none"
         id="rect25"
         width="555.74939"
         height="512"
         x="569.99939"
         y="0" /><use
         x="0"
         y="0"
         xlink:href="#g21"
         id="use25"
         transform="translate(592.71788,-6.2825934)" /></g></g></svg>
